<svg width="237" height="52" viewBox="0 0 237 52" fill="none" xmlns="http://www.w3.org/2000/svg" viewBox="0 0 841.9 595.3>
<rect width="52" height="52" rx="10" fill="#B73058"/>
<rect y="8" width="52" height="44" rx="10" fill="#FF477E"/>
<path d="M92.4872 16.26L87.6432 36H80.8952L78.1792 23.904L75.4072 36H68.6592L63.8712 16.26H69.8072L72.1032 29.756L75.2112 16.26H81.2312L84.2552 29.644L86.5512 16.26H92.4872ZM109.824 27.964C109.824 28.3933 109.796 28.8227 109.74 29.252H99.352C99.408 30.1107 99.6414 30.7547 100.052 31.184C100.481 31.5947 101.023 31.8 101.676 31.8C102.591 31.8 103.244 31.3893 103.636 30.568H109.488C109.245 31.6507 108.769 32.6213 108.06 33.48C107.369 34.32 106.492 34.9827 105.428 35.468C104.364 35.9533 103.188 36.196 101.9 36.196C100.351 36.196 98.9694 35.8693 97.756 35.216C96.5614 34.5627 95.6187 33.6293 94.928 32.416C94.256 31.2027 93.92 29.7747 93.92 28.132C93.92 26.4893 94.256 25.0707 94.928 23.876C95.6 22.6627 96.5334 21.7293 97.728 21.076C98.9414 20.4227 100.332 20.096 101.9 20.096C103.449 20.096 104.821 20.4133 106.016 21.048C107.211 21.6827 108.144 22.5973 108.816 23.792C109.488 24.968 109.824 26.3587 109.824 27.964ZM104.224 26.592C104.224 25.92 104 25.3973 103.552 25.024C103.104 24.632 102.544 24.436 101.872 24.436C101.2 24.436 100.649 24.6227 100.22 24.996C99.7907 25.3507 99.5107 25.8827 99.38 26.592H104.224ZM111.174 28.132C111.174 26.508 111.463 25.0893 112.042 23.876C112.639 22.6627 113.451 21.7293 114.478 21.076C115.505 20.4227 116.643 20.096 117.894 20.096C118.902 20.096 119.798 20.3107 120.582 20.74C121.385 21.1507 122.01 21.72 122.458 22.448V15.28H127.974V36H122.458V33.816C122.029 34.544 121.422 35.1227 120.638 35.552C119.854 35.9813 118.93 36.196 117.866 36.196C116.615 36.196 115.477 35.8693 114.45 35.216C113.442 34.5627 112.639 33.6293 112.042 32.416C111.463 31.184 111.174 29.756 111.174 28.132ZM122.486 28.132C122.486 27.124 122.206 26.3307 121.646 25.752C121.105 25.1733 120.433 24.884 119.63 24.884C118.809 24.884 118.127 25.1733 117.586 25.752C117.045 26.312 116.774 27.1053 116.774 28.132C116.774 29.14 117.045 29.9427 117.586 30.54C118.127 31.1187 118.809 31.408 119.63 31.408C120.433 31.408 121.105 31.1187 121.646 30.54C122.206 29.9613 122.486 29.1587 122.486 28.132ZM143.909 36.196C141.613 36.196 139.727 35.6547 138.253 34.572C136.778 33.4707 135.985 31.9027 135.873 29.868H141.725C141.781 30.5587 141.986 31.0627 142.341 31.38C142.695 31.6973 143.153 31.856 143.713 31.856C144.217 31.856 144.627 31.7347 144.945 31.492C145.281 31.2307 145.449 30.876 145.449 30.428C145.449 29.8493 145.178 29.4013 144.637 29.084C144.095 28.7667 143.218 28.412 142.005 28.02C140.717 27.5907 139.671 27.18 138.869 26.788C138.085 26.3773 137.394 25.7893 136.797 25.024C136.218 24.24 135.929 23.2227 135.929 21.972C135.929 20.7027 136.246 19.62 136.881 18.724C137.515 17.8093 138.393 17.1187 139.513 16.652C140.633 16.1853 141.902 15.952 143.321 15.952C145.617 15.952 147.446 16.4933 148.809 17.576C150.19 18.64 150.927 20.1427 151.021 22.084H145.057C145.038 21.4867 144.851 21.0387 144.497 20.74C144.161 20.4413 143.722 20.292 143.181 20.292C142.77 20.292 142.434 20.4133 142.173 20.656C141.911 20.8987 141.781 21.244 141.781 21.692C141.781 22.0653 141.921 22.392 142.201 22.672C142.499 22.9333 142.863 23.1667 143.293 23.372C143.722 23.5587 144.357 23.8013 145.197 24.1C146.447 24.5293 147.474 24.9587 148.277 25.388C149.098 25.7987 149.798 26.3867 150.377 27.152C150.974 27.8987 151.273 28.8507 151.273 30.008C151.273 31.184 150.974 32.2387 150.377 33.172C149.798 34.1053 148.949 34.8427 147.829 35.384C146.727 35.9253 145.421 36.196 143.909 36.196ZM159.312 22.476C159.741 21.748 160.348 21.1693 161.132 20.74C161.916 20.3107 162.84 20.096 163.904 20.096C165.155 20.096 166.284 20.4227 167.292 21.076C168.319 21.7293 169.121 22.6627 169.7 23.876C170.297 25.0893 170.596 26.508 170.596 28.132C170.596 29.756 170.297 31.184 169.7 32.416C169.121 33.6293 168.319 34.5627 167.292 35.216C166.284 35.8693 165.155 36.196 163.904 36.196C162.84 36.196 161.916 35.9813 161.132 35.552C160.367 35.1227 159.76 34.544 159.312 33.816V43.504H153.824V20.292H159.312V22.476ZM165.024 28.132C165.024 27.1053 164.744 26.312 164.184 25.752C163.643 25.1733 162.971 24.884 162.168 24.884C161.365 24.884 160.684 25.1733 160.124 25.752C159.583 26.3307 159.312 27.124 159.312 28.132C159.312 29.1587 159.583 29.9613 160.124 30.54C160.684 31.1187 161.365 31.408 162.168 31.408C162.971 31.408 163.643 31.1187 164.184 30.54C164.744 29.9427 165.024 29.14 165.024 28.132ZM171.959 28.132C171.959 26.508 172.248 25.0893 172.827 23.876C173.424 22.6627 174.227 21.7293 175.235 21.076C176.262 20.4227 177.4 20.096 178.651 20.096C179.734 20.096 180.667 20.3107 181.451 20.74C182.235 21.1693 182.842 21.748 183.271 22.476V20.292H188.759V36H183.271V33.816C182.842 34.544 182.226 35.1227 181.423 35.552C180.639 35.9813 179.715 36.196 178.651 36.196C177.4 36.196 176.262 35.8693 175.235 35.216C174.227 34.5627 173.424 33.6293 172.827 32.416C172.248 31.184 171.959 29.756 171.959 28.132ZM183.271 28.132C183.271 27.124 182.991 26.3307 182.431 25.752C181.89 25.1733 181.218 24.884 180.415 24.884C179.594 24.884 178.912 25.1733 178.371 25.752C177.83 26.312 177.559 27.1053 177.559 28.132C177.559 29.14 177.83 29.9427 178.371 30.54C178.912 31.1187 179.594 31.408 180.415 31.408C181.218 31.408 181.89 31.1187 182.431 30.54C182.991 29.9613 183.271 29.1587 183.271 28.132ZM197.374 23.064C197.99 22.168 198.737 21.4587 199.614 20.936C200.492 20.4133 201.434 20.152 202.442 20.152V26.004H200.902C199.708 26.004 198.821 26.2373 198.242 26.704C197.664 27.1707 197.374 27.9827 197.374 29.14V36H191.886V20.292H197.374V23.064ZM214.238 36L209.898 29.56V36H204.41V15.28H209.898V26.452L214.238 20.292H220.818L214.63 28.188L220.93 36H214.238ZM229.231 36.196C227.812 36.196 226.543 35.9627 225.423 35.496C224.321 35.0107 223.444 34.3573 222.791 33.536C222.156 32.696 221.801 31.7533 221.727 30.708H227.047C227.121 31.212 227.355 31.604 227.747 31.884C228.139 32.164 228.624 32.304 229.203 32.304C229.651 32.304 230.005 32.2107 230.267 32.024C230.528 31.8373 230.659 31.5947 230.659 31.296C230.659 30.904 230.444 30.6147 230.015 30.428C229.585 30.2413 228.876 30.036 227.887 29.812C226.767 29.588 225.833 29.336 225.087 29.056C224.34 28.776 223.687 28.3187 223.127 27.684C222.585 27.0493 222.315 26.1907 222.315 25.108C222.315 24.1747 222.567 23.3347 223.071 22.588C223.575 21.8227 224.312 21.216 225.283 20.768C226.272 20.32 227.457 20.096 228.839 20.096C230.892 20.096 232.507 20.6 233.683 21.608C234.859 22.616 235.54 23.9413 235.727 25.584H230.771C230.677 25.08 230.453 24.6973 230.099 24.436C229.763 24.156 229.305 24.016 228.727 24.016C228.279 24.016 227.933 24.1 227.691 24.268C227.467 24.436 227.355 24.6693 227.355 24.968C227.355 25.3413 227.569 25.6307 227.999 25.836C228.428 26.0227 229.119 26.2187 230.071 26.424C231.209 26.6667 232.152 26.9373 232.899 27.236C233.664 27.5347 234.327 28.02 234.887 28.692C235.465 29.3453 235.755 30.2413 235.755 31.38C235.755 32.2947 235.484 33.116 234.943 33.844C234.42 34.572 233.664 35.1507 232.675 35.58C231.704 35.9907 230.556 36.196 229.231 36.196Z" fill="#49516F"/>
<path d="M37.3074 18.0939C38.454 18.0939 39.3835 17.1775 39.3835 16.047C39.3835 14.9165 38.454 14 37.3074 14C36.1609 14 35.2314 14.9165 35.2314 16.047C35.2314 17.1775 36.1609 18.0939 37.3074 18.0939Z" fill="white"/>
<path d="M13.6932 18.0939C14.8397 18.0939 15.7692 17.1775 15.7692 16.047C15.7692 14.9165 14.8397 14 13.6932 14C12.5466 14 11.6172 14.9165 11.6172 16.047C11.6172 17.1775 12.5466 18.0939 13.6932 18.0939Z" fill="white"/>
<path d="M37.1343 24.4053C37.1343 24.4508 37.1343 24.4906 37.1343 24.5361C37.1343 24.6214 37.1285 24.701 37.1227 24.7863C37.1054 25.0251 37.0766 25.2639 37.0362 25.4971C37.0362 25.5084 37.0305 25.5255 37.0305 25.5425C37.0189 25.6165 37.0016 25.6847 36.9843 25.7586C36.9843 25.77 36.9843 25.7814 36.9786 25.787C36.9613 25.8666 36.944 25.9406 36.9267 26.0202C36.8863 26.1794 36.8402 26.3386 36.7825 26.4978C36.7594 26.5774 36.7306 26.657 36.7018 26.7309C36.7018 26.7366 36.696 26.7423 36.696 26.7423C36.6672 26.8162 36.6441 26.8901 36.6095 26.9584C36.6037 26.9697 36.598 26.9868 36.5864 26.9982C36.5288 27.1403 36.4596 27.2882 36.3846 27.4246C36.35 27.4928 36.3096 27.5611 36.275 27.635C36.2635 27.6521 36.2577 27.6691 36.2462 27.6805C36.2116 27.743 36.1712 27.8056 36.1366 27.8738C36.0905 27.9477 36.0501 28.016 36.004 28.0842L35.9982 28.0899C35.7387 28.4822 35.4389 28.8518 35.0929 29.193L27.5904 36.5848C27.429 36.744 27.2444 36.8862 27.0541 36.9999L32.0827 31.0011C33.9511 28.7722 33.9857 25.0933 32.0827 22.9099C30.3815 20.9539 27.7461 20.8345 25.9239 22.5346C25.6759 22.7678 25.3184 22.7678 25.0704 22.5346C23.2424 20.8288 20.6128 20.9539 18.9058 22.9099C17.0028 25.0933 17.0432 28.7779 18.9058 31.0011L23.9401 37.0056C23.7498 36.8862 23.5711 36.7497 23.4038 36.5905L15.9129 29.193C15.5669 28.8518 15.2613 28.4822 15.0075 28.0899L15.0018 28.0842C14.9556 28.016 14.9153 27.9477 14.8691 27.8738C14.8288 27.8113 14.7942 27.7487 14.7596 27.6805C14.748 27.6634 14.7423 27.6464 14.7307 27.635C14.6961 27.5668 14.6558 27.4985 14.6212 27.4246C14.5404 27.2711 14.4712 27.1176 14.402 26.9584C14.3732 26.8844 14.3444 26.8162 14.3155 26.7423C14.3155 26.7366 14.3098 26.7309 14.3098 26.7309C14.2809 26.657 14.2521 26.5774 14.229 26.4978C14.1771 26.3386 14.1252 26.1794 14.0849 26.0145C14.0676 25.9462 14.0503 25.878 14.033 25.8098C14.0272 25.787 14.0214 25.7586 14.0157 25.7359C14.0041 25.6733 13.9926 25.6108 13.9753 25.5425C13.9753 25.5255 13.9695 25.5084 13.9695 25.4971C13.9234 25.2639 13.8946 25.0251 13.883 24.7863C13.8773 24.701 13.8715 24.6214 13.8715 24.5418C13.8657 24.4053 13.8657 24.2689 13.8715 24.1324C13.8715 24.0926 13.8715 24.0471 13.8715 24.0073V23.9959C13.8773 23.9106 13.883 23.8197 13.8888 23.7287C13.9003 23.5411 13.9234 23.3534 13.958 23.1715C13.9753 23.0805 13.9926 22.9895 14.0099 22.8928C14.033 22.7791 14.0618 22.6654 14.0906 22.5517C14.1137 22.455 14.1425 22.3584 14.1714 22.2617V22.256C14.1771 22.2446 14.1829 22.2276 14.1829 22.2162C14.206 22.148 14.229 22.0797 14.2521 22.0172C14.2521 22.0115 14.2521 22.0115 14.2521 22.0058C14.2579 21.9888 14.2636 21.9717 14.2694 21.9603C14.2752 21.949 14.2809 21.9319 14.2867 21.9205C14.2867 21.9092 14.2925 21.8978 14.2982 21.8864C14.2982 21.875 14.304 21.8637 14.3098 21.8523C14.3213 21.8182 14.3328 21.7898 14.3501 21.7613C14.3674 21.7158 14.3847 21.6647 14.4078 21.6192C14.4136 21.6078 14.4193 21.5964 14.4193 21.5851C14.4193 21.5851 14.4193 21.5851 14.4193 21.5794C14.4193 21.5737 14.4251 21.568 14.4309 21.5566V21.5509C14.4309 21.5453 14.4366 21.5339 14.4424 21.5282C14.477 21.4486 14.5116 21.369 14.552 21.2894C14.5635 21.2723 14.5693 21.2553 14.575 21.2382C14.5808 21.2268 14.5866 21.2155 14.5923 21.2041C14.6385 21.1074 14.6904 21.0165 14.7423 20.9255C14.7423 20.9198 14.7423 20.9198 14.748 20.9141C14.7538 20.9027 14.7596 20.8914 14.7711 20.88C14.7942 20.8402 14.8172 20.8004 14.8461 20.7606C14.8634 20.7265 14.8807 20.698 14.898 20.6696C14.9095 20.6526 14.921 20.6355 14.9326 20.6184C14.9326 20.6128 14.9383 20.6071 14.9441 20.6014C15.0075 20.5047 15.071 20.4137 15.1402 20.3228C15.1459 20.3114 15.1517 20.3057 15.1575 20.3C15.2151 20.2261 15.2728 20.1522 15.3305 20.0783C15.5035 19.8622 15.6995 19.6518 15.9071 19.4528C18.3868 17.0988 22.2217 16.9509 24.8743 19.0036C25.2376 19.2822 25.7509 19.2822 26.1142 19.0036C28.7668 16.9509 32.6017 17.0988 35.0813 19.4528C35.2889 19.6518 35.485 19.8622 35.658 20.0783C35.7157 20.1522 35.7791 20.2261 35.831 20.3C35.8368 20.3114 35.8425 20.3228 35.8541 20.3341C35.906 20.4024 35.9521 20.4706 36.004 20.5445C36.1655 20.7776 36.3039 21.0221 36.4307 21.2723C36.4365 21.2837 36.4423 21.2894 36.4423 21.2951C36.4769 21.3747 36.5172 21.4486 36.5518 21.5282C36.5576 21.5396 36.5634 21.5509 36.5691 21.568C36.598 21.6306 36.6268 21.6988 36.6556 21.767C36.6729 21.8068 36.6845 21.8409 36.696 21.8807C36.7191 21.9376 36.7421 22.0001 36.7594 22.057C36.7652 22.0797 36.771 22.0968 36.7825 22.1195C36.8056 22.1935 36.8286 22.2674 36.8517 22.3413C36.8748 22.4323 36.9036 22.5233 36.9267 22.6085C36.9497 22.6995 36.9728 22.7905 36.9901 22.8815C37.0132 22.9725 37.0247 23.0634 37.042 23.1601C37.0766 23.342 37.0939 23.5297 37.1112 23.7173C37.117 23.8083 37.1227 23.8993 37.1285 23.9903C37.14 24.1381 37.14 24.2689 37.1343 24.4053Z" fill="white"/>
<path d="M44.9254 17.2411L37.9074 25.7644C38.0054 25.2527 38.0573 24.7353 38.0515 24.2065C38.04 22.7451 37.619 21.3634 36.8521 20.1807C39.1126 19.976 42.4688 18.0655 44.5044 16.7748C44.8101 16.5815 45.1503 16.9624 44.9254 17.2411Z" fill="white"/>
<path d="M12.949 24.2121C12.9433 24.7353 12.9952 25.2584 13.0932 25.7701L6.07516 17.2411C5.84449 16.9624 6.19049 16.5815 6.49612 16.7748C8.53176 18.0655 11.888 19.9817 14.1485 20.1807C13.3758 21.3691 12.9606 22.7508 12.949 24.2121Z" fill="white"/>
</svg>


